<svg width="45" height="90" viewBox="0 0 45 90" fill="none" xmlns="http://www.w3.org/2000/svg">
<path d="M31.623 32H13C12.2044 32 11.4413 31.6839 10.8787 31.1213C10.3161 30.5587 10 29.7957 10 29V17C9.99966 16.6633 10.0561 16.3289 10.167 16.011L21.881 26.121C22.0526 26.2901 22.2736 26.4001 22.512 26.435C22.7443 26.4019 22.9586 26.2913 23.12 26.121L34.455 16.006C34.5672 16.3254 34.6243 16.6615 34.624 17V29C34.624 29.3941 34.5464 29.7842 34.3955 30.1483C34.2447 30.5123 34.0236 30.8431 33.745 31.1217C33.4663 31.4003 33.1355 31.6212 32.7714 31.7719C32.4073 31.9226 32.0171 32.0001 31.623 32ZM22.495 23.779C22.3509 23.7625 22.2171 23.696 22.117 23.591L11.474 14.417C11.9362 14.144 12.4632 14 13 14H31.623C32.1652 13.9996 32.6974 14.1461 33.163 14.424L22.893 23.591C22.79 23.693 22.6566 23.7586 22.513 23.778L22.495 23.779Z" fill="black"/>
<path d="M16 61L29 74" stroke="black" stroke-width="2" stroke-linecap="round"/>
<path d="M29 61L16 74" stroke="black" stroke-width="2" stroke-linecap="round"/>
</svg>
