<svg width="20" height="20" viewBox="0 0 20 20" fill="none" xmlns="http://www.w3.org/2000/svg">
<path fill-rule="evenodd" clip-rule="evenodd" d="M10.0005 1.79523C11.3321 1.74512 12.6654 1.78203 13.9922 1.90574C14.6357 1.89768 15.275 2.01049 15.8769 2.23829C16.7073 2.6253 17.3747 3.29268 17.7617 4.12308C17.9899 4.72597 18.1027 5.36639 18.0943 6.01097C18.0943 7.00862 18.2048 7.34117 18.2048 10.0026C18.2549 11.3341 18.218 12.6675 18.0943 13.9942C18.1023 14.6378 17.9895 15.2771 17.7617 15.879C17.3747 16.7094 16.7073 17.3768 15.8769 17.7638C15.275 17.9916 14.6357 18.1044 13.9922 18.0964C12.9945 18.0964 12.662 18.2069 10.0005 18.2069C8.66964 18.2562 7.33695 18.2186 6.01097 18.0943C5.36743 18.1023 4.7281 17.9895 4.12618 17.7617C3.29578 17.3747 2.6284 16.7073 2.24138 15.8769C2.01358 15.275 1.90078 14.6357 1.90883 13.9922C1.90883 12.9945 1.79833 12.662 1.79833 10.0005C1.74727 8.66976 1.78315 7.33707 1.90574 6.01097C1.89768 5.36743 2.01049 4.7281 2.23829 4.12618C2.43216 3.71438 2.69519 3.33887 3.01596 3.01596C3.276 2.62791 3.67156 2.35095 4.12514 2.23932C4.72732 2.01104 5.36702 1.89788 6.01097 1.90574C7.33768 1.78203 8.67107 1.74512 10.0026 1.79523H10.0005ZM10.0005 0.0209441C8.63184 -0.0280192 7.26143 0.00888839 5.89736 0.13145C5.06398 0.129749 4.23729 0.280247 3.45798 0.575538C2.785 0.79464 2.17586 1.17509 1.68369 1.68369C1.17509 2.17586 0.79464 2.785 0.575538 3.45798C0.227181 4.2216 0.074556 5.05997 0.13145 5.89736C0.00888839 7.26143 -0.0280192 8.63184 0.0209441 10.0005C-0.027976 11.3689 0.00893157 12.7389 0.13145 14.1027C0.129372 14.9371 0.279876 15.7649 0.575538 16.5451C0.795094 17.217 1.17551 17.825 1.68369 18.3163C2.17574 18.8253 2.7849 19.2061 3.45798 19.4255C4.23736 19.7205 5.06404 19.8706 5.89736 19.8686C7.26109 19.9911 8.63115 20.028 9.9995 19.9791C11.3678 20.028 12.7379 19.9911 14.1016 19.8686C14.9363 19.8711 15.7645 19.721 16.5451 19.4255C17.2125 19.1956 17.8187 18.8168 18.3177 18.3177C18.8168 17.8187 19.1956 17.2125 19.4255 16.5451C19.7205 15.7658 19.8706 14.9391 19.8686 14.1058C19.8686 12.9966 19.9791 12.6599 19.9791 10.0036C20.028 8.63528 19.9911 7.26522 19.8686 5.90149C19.8706 5.06818 19.7205 4.24149 19.4255 3.46211C19.2067 2.78755 18.8259 2.17691 18.3163 1.68369C17.825 1.17551 17.217 0.795094 16.5451 0.575538C15.7649 0.279876 14.9371 0.129372 14.1027 0.13145C12.7389 0.00893157 11.3689 -0.027976 10.0005 0.0209441V0.0209441ZM10.0005 4.89971C9.3276 4.88854 8.6593 5.01284 8.03539 5.26523C7.41148 5.51761 6.84472 5.89292 6.36882 6.36882C5.89292 6.84472 5.51761 7.41148 5.26523 8.03539C5.01284 8.6593 4.88854 9.3276 4.89971 10.0005C4.89971 11.0094 5.19887 11.9956 5.75936 12.8344C6.31984 13.6732 7.11648 14.327 8.04853 14.7131C8.98058 15.0991 10.0062 15.2001 10.9956 15.0033C11.9851 14.8065 12.894 14.3207 13.6074 13.6074C14.3207 12.894 14.8065 11.9851 15.0033 10.9956C15.2001 10.0062 15.0991 8.98058 14.7131 8.04853C14.327 7.11648 13.6732 6.31984 12.8344 5.75936C11.9956 5.19887 11.0094 4.89971 10.0005 4.89971V4.89971ZM10.0005 13.3271C9.56145 13.3352 9.12524 13.2547 8.71797 13.0904C8.3107 12.9261 7.94075 12.6814 7.63021 12.3708C7.31968 12.0603 7.07495 11.6904 6.91066 11.2831C6.74636 10.8758 6.66587 10.4396 6.674 10.0005C6.66587 9.56145 6.74636 9.12524 6.91066 8.71797C7.07495 8.3107 7.31968 7.94075 7.63021 7.63021C7.94075 7.31968 8.3107 7.07495 8.71797 6.91066C9.12524 6.74636 9.56145 6.66587 10.0005 6.674C10.4396 6.66587 10.8758 6.74636 11.2831 6.91066C11.6904 7.07495 12.0603 7.31968 12.3708 7.63021C12.6814 7.94075 12.9261 8.3107 13.0904 8.71797C13.2547 9.12524 13.3352 9.56145 13.3271 10.0005C13.3352 10.4396 13.2547 10.8758 13.0904 11.2831C12.9261 11.6904 12.6814 12.0603 12.3708 12.3708C12.0603 12.6814 11.6904 12.9261 11.2831 13.0904C10.8758 13.2547 10.4396 13.3352 10.0005 13.3271V13.3271ZM15.3234 3.45901C15.0822 3.45942 14.8465 3.53133 14.6462 3.66564C14.4459 3.79996 14.2899 3.99065 14.1979 4.21362C14.1059 4.43658 14.0821 4.68181 14.1295 4.9183C14.1769 5.15479 14.2933 5.37192 14.4641 5.54225C14.6349 5.71258 14.8523 5.82846 15.0889 5.87523C15.3255 5.92201 15.5707 5.89759 15.7934 5.80506C16.0161 5.71252 16.2064 5.55603 16.3402 5.35536C16.474 5.15469 16.5453 4.91886 16.5451 4.67767C16.5424 4.35502 16.4131 4.04635 16.1849 3.8182C15.9568 3.59005 15.6481 3.46068 15.3255 3.45798" fill="#F231A5"/>
</svg>
