<svg width="20" height="20" viewBox="0 0 20 20" fill="none" xmlns="http://www.w3.org/2000/svg">
<path d="M10.0269 1.94041e-05C12.0043 0.00534312 13.9357 0.596776 15.577 1.69955C17.2183 2.80233 18.4958 4.36695 19.2481 6.19564C20.0003 8.02433 20.1936 10.035 19.8033 11.9735C19.4131 13.9119 18.4569 15.6912 17.0557 17.0864C15.6544 18.4816 13.871 19.43 11.9309 19.8118C9.9907 20.1936 7.98092 19.9916 6.15552 19.2314C4.33012 18.4712 2.77105 17.1869 1.67542 15.5409C0.579781 13.8948 -0.00325364 11.9608 1.36574e-05 9.98346C0.0063202 7.33009 1.06611 4.78785 2.9464 2.91571C4.82669 1.04357 7.37354 -0.00520209 10.0269 1.94041e-05ZM11.4676 10.8114C10.1667 11.2234 8.95375 11.8738 7.89068 12.7293C6.48042 13.8496 5.28111 15.2122 4.34897 16.7533C4.43281 16.8226 4.49593 16.8785 4.56217 16.9303C5.90824 17.9927 7.53754 18.6349 9.2465 18.7767C10.5489 18.8892 11.8601 18.7125 13.0863 18.2592C13.1168 18.254 13.1458 18.2424 13.1715 18.2252C13.1972 18.208 13.2191 18.1856 13.2356 18.1595C13.2521 18.1333 13.2629 18.104 13.2673 18.0734C13.2717 18.0428 13.2697 18.0116 13.2612 17.9818C13.2385 17.8141 13.2322 17.6454 13.2136 17.4767C13.0336 15.8465 12.6751 14.2409 12.1445 12.6889C11.9323 12.0669 11.6973 11.4511 11.4676 10.8114ZM3.47545 15.9253C4.37781 14.5386 5.47314 13.2875 6.72841 12.2097C7.98093 11.1223 9.42914 10.2835 10.9956 9.73817C10.7979 9.32418 10.6117 8.93398 10.4233 8.54172C10.3964 8.48583 10.3623 8.43824 10.3198 8.36579C7.39591 9.35994 4.2676 9.59638 1.22748 9.05302C1.09865 10.2923 1.23226 11.5448 1.61957 12.7291C2.00689 13.9133 2.63922 15.0027 3.47545 15.9263V15.9253ZM1.44377 7.8845C4.22471 8.39229 7.08869 8.19265 9.77227 7.3039C9.73397 7.22317 9.71331 7.17141 9.68743 7.1238C8.73799 5.39352 7.67445 3.72833 6.50384 2.13931C6.39516 1.99131 6.31548 1.98408 6.16127 2.06067C5.15884 2.55284 4.25707 3.22783 3.50236 4.05094C2.50583 5.13656 1.79797 6.4551 1.44377 7.88554V7.8845ZM14.4142 17.5854C14.4422 17.5854 14.4577 17.5854 14.469 17.5854C14.5138 17.5653 14.5574 17.5425 14.5994 17.5171C15.6948 16.8481 16.6311 15.9482 17.3429 14.8801C18.0547 13.8121 18.525 12.6016 18.7208 11.3331C18.7477 11.1768 18.7083 11.1023 18.5448 11.0454C17.4495 10.6569 16.3057 10.4221 15.1459 10.3478C14.3035 10.2947 13.4577 10.3515 12.6299 10.5165C13.562 12.7749 14.163 15.1562 14.4142 17.5865V17.5854ZM15.6313 3.24675C14.3458 2.14267 12.7603 1.44686 11.0774 1.2482C9.89148 1.1007 8.68782 1.19972 7.54192 1.53904C8.79179 3.22497 9.91869 4.99868 10.9139 6.84642C12.7383 6.01867 14.3512 4.78791 15.6313 3.24675ZM12.1703 9.41423C14.3869 8.95524 16.6873 9.11821 18.817 9.88514C18.7848 7.72388 17.9623 5.64922 16.5048 4.053C15.1287 5.69399 13.4054 7.00901 11.4593 7.90313L12.1703 9.41423Z" fill="#F231A5"/>
</svg>
