<svg width="75" height="75" viewBox="0 0 75 75" fill="none" xmlns="http://www.w3.org/2000/svg">
<path d="M0 5C0 2.23858 2.23858 0 5 0H70C72.7614 0 75 2.23858 75 5V49.5413C75 56.2934 70.5326 65.2256 63.5 70C56.4674 74.7744 47.4456 75 37.5 75H5C2.23858 75 0 72.7614 0 70V5Z" fill="#F231A5"/>
<g filter="url(#filter0_d)">
<path d="M25.7 24.728C28.364 24.728 30.692 25.256 32.684 26.312C34.676 27.368 36.212 28.856 37.292 30.776C38.396 32.672 38.948 34.868 38.948 37.364C38.948 39.836 38.396 42.032 37.292 43.952C36.212 45.872 34.664 47.36 32.648 48.416C30.656 49.472 28.34 50 25.7 50H16.232V24.728H25.7ZM25.304 44.672C27.632 44.672 29.444 44.036 30.74 42.764C32.036 41.492 32.684 39.692 32.684 37.364C32.684 35.036 32.036 33.224 30.74 31.928C29.444 30.632 27.632 29.984 25.304 29.984H22.388V44.672H25.304ZM58.8403 24.728V29.66H48.5443V34.988H56.2483V39.776H48.5443V50H42.3883V24.728H58.8403Z" fill="black"/>
<path d="M32.684 26.312L33.1524 25.4285L33.1524 25.4285L32.684 26.312ZM37.292 30.776L36.4204 31.2663L36.4241 31.2728L36.4278 31.2792L37.292 30.776ZM37.292 43.952L36.4251 43.4535L36.4204 43.4617L37.292 43.952ZM32.648 48.416L32.184 47.5302L32.1796 47.5325L32.648 48.416ZM16.232 50H15.232V51H16.232V50ZM16.232 24.728V23.728H15.232V24.728H16.232ZM22.388 29.984V28.984H21.388V29.984H22.388ZM22.388 44.672H21.388V45.672H22.388V44.672ZM25.7 25.728C28.2303 25.728 30.392 26.2288 32.2156 27.1955L33.1524 25.4285C30.992 24.2832 28.4977 23.728 25.7 23.728V25.728ZM32.2156 27.1955C34.0425 28.164 35.4367 29.5174 36.4204 31.2663L38.1636 30.2857C36.9873 28.1946 35.3095 26.572 33.1524 25.4285L32.2156 27.1955ZM36.4278 31.2792C37.4312 33.0023 37.948 35.02 37.948 37.364H39.948C39.948 34.716 39.3608 32.3417 38.1562 30.2728L36.4278 31.2792ZM37.948 37.364C37.948 39.6818 37.4321 41.7022 36.4251 43.4535L38.1589 44.4505C39.3599 42.3618 39.948 39.9902 39.948 37.364H37.948ZM36.4204 43.4617C35.4385 45.2075 34.0348 46.5607 32.184 47.5302L33.112 49.3018C35.2933 48.1593 36.9855 46.5365 38.1636 44.4423L36.4204 43.4617ZM32.1796 47.5325C30.3547 48.4999 28.2047 49 25.7 49V51C28.4753 51 30.9573 50.4441 33.1164 49.2995L32.1796 47.5325ZM25.7 49H16.232V51H25.7V49ZM17.232 50V24.728H15.232V50H17.232ZM16.232 25.728H25.7V23.728H16.232V25.728ZM25.304 45.672C27.8168 45.672 29.9088 44.9809 31.4405 43.4777L30.0395 42.0503C28.9792 43.0911 27.4472 43.672 25.304 43.672V45.672ZM31.4405 43.4777C32.9782 41.9684 33.684 39.8809 33.684 37.364H31.684C31.684 39.5031 31.0938 41.0156 30.0395 42.0503L31.4405 43.4777ZM33.684 37.364C33.684 34.8461 32.9779 32.7517 31.4471 31.2209L30.0329 32.6351C31.0941 33.6963 31.684 35.2259 31.684 37.364H33.684ZM31.4471 31.2209C29.9163 29.6901 27.8219 28.984 25.304 28.984V30.984C27.4421 30.984 28.9717 31.5739 30.0329 32.6351L31.4471 31.2209ZM25.304 28.984H22.388V30.984H25.304V28.984ZM21.388 29.984V44.672H23.388V29.984H21.388ZM22.388 45.672H25.304V43.672H22.388V45.672ZM58.8403 24.728H59.8403V23.728H58.8403V24.728ZM58.8403 29.66V30.66H59.8403V29.66H58.8403ZM48.5443 29.66V28.66H47.5443V29.66H48.5443ZM48.5443 34.988H47.5443V35.988H48.5443V34.988ZM56.2483 34.988H57.2483V33.988H56.2483V34.988ZM56.2483 39.776V40.776H57.2483V39.776H56.2483ZM48.5443 39.776V38.776H47.5443V39.776H48.5443ZM48.5443 50V51H49.5443V50H48.5443ZM42.3883 50H41.3883V51H42.3883V50ZM42.3883 24.728V23.728H41.3883V24.728H42.3883ZM57.8403 24.728V29.66H59.8403V24.728H57.8403ZM58.8403 28.66H48.5443V30.66H58.8403V28.66ZM47.5443 29.66V34.988H49.5443V29.66H47.5443ZM48.5443 35.988H56.2483V33.988H48.5443V35.988ZM55.2483 34.988V39.776H57.2483V34.988H55.2483ZM56.2483 38.776H48.5443V40.776H56.2483V38.776ZM47.5443 39.776V50H49.5443V39.776H47.5443ZM48.5443 49H42.3883V51H48.5443V49ZM43.3883 50V24.728H41.3883V50H43.3883ZM42.3883 25.728H58.8403V23.728H42.3883V25.728Z" fill="black"/>
</g>
<defs>
<filter id="filter0_d" x="11.2324" y="23.728" width="52.6083" height="35.272" filterUnits="userSpaceOnUse" color-interpolation-filters="sRGB">
<feFlood flood-opacity="0" result="BackgroundImageFix"/>
<feColorMatrix in="SourceAlpha" type="matrix" values="0 0 0 0 0 0 0 0 0 0 0 0 0 0 0 0 0 0 127 0"/>
<feOffset dy="4"/>
<feGaussianBlur stdDeviation="2"/>
<feColorMatrix type="matrix" values="0 0 0 0 0 0 0 0 0 0 0 0 0 0 0 0 0 0 0.25 0"/>
<feBlend mode="normal" in2="BackgroundImageFix" result="effect1_dropShadow"/>
<feBlend mode="normal" in="SourceGraphic" in2="effect1_dropShadow" result="shape"/>
</filter>
</defs>
</svg>
