<svg width="25" height="20" viewBox="0 0 25 20" fill="none" xmlns="http://www.w3.org/2000/svg">
<path fill-rule="evenodd" clip-rule="evenodd" d="M7.70146 19.997C9.56928 20.014 11.4217 19.6536 13.1506 18.9368C14.8795 18.2199 16.4501 17.161 17.7708 15.8219C19.0915 14.4828 20.1358 12.8904 20.8426 11.1376C21.5494 9.38482 21.9046 7.50683 21.8875 5.61332V4.93081C22.8317 4.20224 23.6532 3.32336 24.32 2.32835C23.4139 2.72772 22.4598 3.00396 21.4823 3.14991C22.4872 2.51045 23.2492 1.54513 23.6442 0.410954C22.6681 0.96183 21.623 1.37637 20.5372 1.64329C20.08 1.12138 19.5179 0.704712 18.8887 0.421301C18.2594 0.13789 17.5776 -0.0057021 16.8891 0.000173289C15.5697 0.020577 14.31 0.560986 13.377 1.50687C12.4439 2.45276 11.9108 3.72979 11.8907 5.06731C11.8598 5.43812 11.9056 5.81138 12.0253 6.16315C10.038 6.06523 8.09424 5.53802 6.32417 4.61684C4.5541 3.69565 2.99859 2.40174 1.76177 0.821734C1.31712 1.61489 1.0842 2.5119 1.08601 3.42419C1.10405 4.25196 1.30817 5.06464 1.68281 5.80036C2.05746 6.53608 2.59276 7.17545 3.24795 7.66977C2.43586 7.65313 1.64293 7.4166 0.951357 6.98471C0.950035 8.15779 1.35514 9.29408 2.09596 10.1952C2.83678 11.0964 3.86625 11.7052 5.00469 11.9154C4.56458 12.0355 4.108 12.0816 3.65316 12.0519C3.33177 12.0741 3.00936 12.0276 2.70684 11.9154C3.0373 12.9304 3.66895 13.8172 4.51543 14.4545C5.3619 15.0918 6.38189 15.4485 7.43594 15.4759C5.65989 16.8824 3.47436 17.6531 1.22066 17.6676C0.809202 17.691 0.396757 17.6453 0 17.5323C2.23582 19.1785 4.93856 20.0439 7.70146 19.9983" fill="#F231A5"/>
</svg>
