<svg width="74" height="109" viewBox="0 0 74 109" fill="none" xmlns="http://www.w3.org/2000/svg">
<path d="M0 0H74V72C74 81.813 70.1018 91.2241 63.163 98.1629C56.2241 105.102 46.813 109 37 109H0V0Z" fill="#F231A5"/>
<g filter="url(#filter0_d)">
<path d="M24.7 57.728C27.364 57.728 29.692 58.256 31.684 59.312C33.676 60.368 35.212 61.856 36.292 63.776C37.396 65.672 37.948 67.868 37.948 70.364C37.948 72.836 37.396 75.032 36.292 76.952C35.212 78.872 33.664 80.36 31.648 81.416C29.656 82.472 27.34 83 24.7 83H15.232V57.728H24.7ZM24.304 77.672C26.632 77.672 28.444 77.036 29.74 75.764C31.036 74.492 31.684 72.692 31.684 70.364C31.684 68.036 31.036 66.224 29.74 64.928C28.444 63.632 26.632 62.984 24.304 62.984H21.388V77.672H24.304ZM57.8403 57.728V62.66H47.5443V67.988H55.2483V72.776H47.5443V83H41.3883V57.728H57.8403Z" fill="black"/>
<path d="M31.684 59.312L32.1524 58.4285L32.1524 58.4285L31.684 59.312ZM36.292 63.776L35.4204 64.2663L35.4241 64.2728L35.4278 64.2792L36.292 63.776ZM36.292 76.952L35.4251 76.4535L35.4204 76.4617L36.292 76.952ZM31.648 81.416L31.184 80.5302L31.1796 80.5325L31.648 81.416ZM15.232 83H14.232V84H15.232V83ZM15.232 57.728V56.728H14.232V57.728H15.232ZM21.388 62.984V61.984H20.388V62.984H21.388ZM21.388 77.672H20.388V78.672H21.388V77.672ZM24.7 58.728C27.2303 58.728 29.392 59.2288 31.2156 60.1955L32.1524 58.4285C29.992 57.2832 27.4977 56.728 24.7 56.728V58.728ZM31.2156 60.1955C33.0425 61.164 34.4367 62.5174 35.4204 64.2663L37.1636 63.2857C35.9873 61.1946 34.3095 59.572 32.1524 58.4285L31.2156 60.1955ZM35.4278 64.2792C36.4312 66.0023 36.948 68.02 36.948 70.364H38.948C38.948 67.716 38.3608 65.3417 37.1562 63.2728L35.4278 64.2792ZM36.948 70.364C36.948 72.6818 36.4321 74.7022 35.4251 76.4535L37.1589 77.4505C38.3599 75.3618 38.948 72.9902 38.948 70.364H36.948ZM35.4204 76.4617C34.4385 78.2075 33.0348 79.5607 31.184 80.5302L32.112 82.3018C34.2933 81.1593 35.9855 79.5365 37.1636 77.4423L35.4204 76.4617ZM31.1796 80.5325C29.3547 81.4999 27.2047 82 24.7 82V84C27.4753 84 29.9573 83.4441 32.1164 82.2995L31.1796 80.5325ZM24.7 82H15.232V84H24.7V82ZM16.232 83V57.728H14.232V83H16.232ZM15.232 58.728H24.7V56.728H15.232V58.728ZM24.304 78.672C26.8168 78.672 28.9088 77.9809 30.4405 76.4777L29.0395 75.0503C27.9792 76.0911 26.4472 76.672 24.304 76.672V78.672ZM30.4405 76.4777C31.9782 74.9684 32.684 72.8809 32.684 70.364H30.684C30.684 72.5031 30.0938 74.0156 29.0395 75.0503L30.4405 76.4777ZM32.684 70.364C32.684 67.8461 31.9779 65.7517 30.4471 64.2209L29.0329 65.6351C30.0941 66.6963 30.684 68.2259 30.684 70.364H32.684ZM30.4471 64.2209C28.9163 62.6901 26.8219 61.984 24.304 61.984V63.984C26.4421 63.984 27.9717 64.5739 29.0329 65.6351L30.4471 64.2209ZM24.304 61.984H21.388V63.984H24.304V61.984ZM20.388 62.984V77.672H22.388V62.984H20.388ZM21.388 78.672H24.304V76.672H21.388V78.672ZM57.8403 57.728H58.8403V56.728H57.8403V57.728ZM57.8403 62.66V63.66H58.8403V62.66H57.8403ZM47.5443 62.66V61.66H46.5443V62.66H47.5443ZM47.5443 67.988H46.5443V68.988H47.5443V67.988ZM55.2483 67.988H56.2483V66.988H55.2483V67.988ZM55.2483 72.776V73.776H56.2483V72.776H55.2483ZM47.5443 72.776V71.776H46.5443V72.776H47.5443ZM47.5443 83V84H48.5443V83H47.5443ZM41.3883 83H40.3883V84H41.3883V83ZM41.3883 57.728V56.728H40.3883V57.728H41.3883ZM56.8403 57.728V62.66H58.8403V57.728H56.8403ZM57.8403 61.66H47.5443V63.66H57.8403V61.66ZM46.5443 62.66V67.988H48.5443V62.66H46.5443ZM47.5443 68.988H55.2483V66.988H47.5443V68.988ZM54.2483 67.988V72.776H56.2483V67.988H54.2483ZM55.2483 71.776H47.5443V73.776H55.2483V71.776ZM46.5443 72.776V83H48.5443V72.776H46.5443ZM47.5443 82H41.3883V84H47.5443V82ZM42.3883 83V57.728H40.3883V83H42.3883ZM41.3883 58.728H57.8403V56.728H41.3883V58.728Z" fill="black"/>
</g>
<defs>
<filter id="filter0_d" x="10.2324" y="56.728" width="52.6083" height="35.272" filterUnits="userSpaceOnUse" color-interpolation-filters="sRGB">
<feFlood flood-opacity="0" result="BackgroundImageFix"/>
<feColorMatrix in="SourceAlpha" type="matrix" values="0 0 0 0 0 0 0 0 0 0 0 0 0 0 0 0 0 0 127 0"/>
<feOffset dy="4"/>
<feGaussianBlur stdDeviation="2"/>
<feColorMatrix type="matrix" values="0 0 0 0 0 0 0 0 0 0 0 0 0 0 0 0 0 0 0.25 0"/>
<feBlend mode="normal" in2="BackgroundImageFix" result="effect1_dropShadow"/>
<feBlend mode="normal" in="SourceGraphic" in2="effect1_dropShadow" result="shape"/>
</filter>
</defs>
</svg>
